<svg width="244" height="44" viewBox="0 0 244 44" fill="none" xmlns="http://www.w3.org/2000/svg">
<path d="M0 1.15448H12.2856V17.0944L25.15 1.15448H39.569L23.5315 20.1641L39.7407 41.7212H25.2088L15.9787 29.0924L12.2856 33.4974V41.7261H0V1.15448ZM70.261 15.355C65.5282 12.9209 61.8401 11.5856 58.608 11.5856C54.1646 11.5856 52.1489 15.5866 52.1489 21.4403C52.1489 27.2939 54.1695 31.2949 58.608 31.2949C61.8401 31.2949 65.5282 29.9596 70.261 27.5255L75.7981 36.6263C69.8 39.7551 63.9735 42.3617 56.9945 42.3617C46.6657 42.3617 39.5151 35.4635 39.5151 21.4403C39.5151 7.41711 46.6657 0.518856 56.9945 0.518856C63.9735 0.518856 69.8 3.12541 75.7981 6.25426L70.261 15.355ZM97.2599 41.7261H80.8791V1.15448H97.2599C111.395 1.15448 118.835 6.94902 118.835 21.4403C118.835 35.9315 111.395 41.7261 97.2599 41.7261ZM95.9897 11.5314H93.2187V31.3541H95.9897C102.449 31.3541 106.603 29.9054 106.603 21.4452C106.603 12.9801 102.449 11.5314 95.9897 11.5314ZM156.157 20.8638L149.58 34.9461H143.293L136.716 20.918V41.7261H124.431V1.15448H136.893L146.412 21.5536L155.932 1.15448H168.448V41.7212H156.162V20.8638H156.157Z" fill="#4BAC87"/>
<path d="M0 1.15448H12.2856V17.0944L25.15 1.15448H39.569L23.5315 20.1641L39.7407 41.7212H25.2088L15.9787 29.0924L12.2856 33.4974V41.7261H0V1.15448ZM70.261 15.355C65.5282 12.9209 61.8401 11.5856 58.608 11.5856C54.1646 11.5856 52.1489 15.5866 52.1489 21.4403C52.1489 27.2939 54.1695 31.2949 58.608 31.2949C61.8401 31.2949 65.5282 29.9596 70.261 27.5255L75.7981 36.6263C69.8 39.7551 63.9735 42.3617 56.9945 42.3617C46.6657 42.3617 39.5151 35.4635 39.5151 21.4403C39.5151 7.41711 46.6657 0.518856 56.9945 0.518856C63.9735 0.518856 69.8 3.12541 75.7981 6.25426L70.261 15.355ZM97.2599 41.7261H80.8791V1.15448H97.2599C111.395 1.15448 118.835 6.94902 118.835 21.4403C118.835 35.9315 111.395 41.7261 97.2599 41.7261ZM95.9897 11.5314H93.2187V31.3541H95.9897C102.449 31.3541 106.603 29.9054 106.603 21.4452C106.603 12.9801 102.449 11.5314 95.9897 11.5314ZM156.157 20.8638L149.58 34.9461H143.293L136.716 20.918V41.7261H124.431V1.15448H136.893L146.412 21.5536L155.932 1.15448H168.448V41.7212H156.162V20.8638H156.157Z" fill="#4BAC87"/>
<path d="M0 1.1594H12.2856V17.0944L25.15 1.15448H39.569L23.5315 20.1641L39.7407 41.7211H25.2088L15.9787 29.0924L12.2856 33.4974V41.7261H0V1.1594ZM70.261 15.355C65.5282 12.9209 61.8401 11.5856 58.608 11.5856C54.1646 11.5856 52.1489 15.5866 52.1489 21.4403C52.1489 27.2939 54.1695 31.29 58.608 31.29C61.8401 31.29 65.5282 29.9596 70.261 27.5206L75.7981 36.6214C69.8 39.7502 63.9735 42.3568 56.9945 42.3568C46.6657 42.3568 39.5151 35.4585 39.5151 21.4353C39.5151 7.41218 46.6657 0.513924 56.9945 0.513924C63.9735 0.513924 69.8 3.12048 75.7981 6.24933L70.261 15.355ZM97.2599 41.7261H80.8791V1.1594H97.2599C111.395 1.1594 118.835 6.95394 118.835 21.4452C118.835 35.9315 111.395 41.7261 97.2599 41.7261ZM95.9897 11.5314H93.2187V31.3541H95.9897C102.449 31.3541 106.603 29.9054 106.603 21.4452C106.603 12.9801 102.449 11.5314 95.9897 11.5314ZM156.157 20.8638L149.58 34.9461H143.293L136.716 20.918V41.7261H124.431V1.1594H136.893L146.412 21.5585L155.932 1.1594H168.448V41.7261H156.162V20.8638H156.157Z" fill="#4BAC87"/>
<path d="M200.117 37.7349C200.117 39.0259 199.43 40.0015 198.361 40.0015C197.429 40.0015 196.919 39.4792 196.919 38.5726C196.919 37.2816 197.605 36.3011 198.675 36.3011C199.606 36.3011 200.117 36.8234 200.117 37.7349ZM199.557 37.7645C199.557 37.2028 199.381 36.7544 198.67 36.7544C197.924 36.7544 197.478 37.6758 197.478 38.543C197.478 39.1097 197.654 39.5531 198.366 39.5531C199.111 39.5482 199.557 38.6366 199.557 37.7645Z" fill="#939598"/>
<path d="M200.117 37.7349C200.117 39.0259 199.43 40.0015 198.361 40.0015C197.429 40.0015 196.919 39.4792 196.919 38.5726C196.919 37.2816 197.605 36.3011 198.675 36.3011C199.606 36.3011 200.117 36.8234 200.117 37.7349ZM199.557 37.7645C199.557 37.2028 199.381 36.7544 198.67 36.7544C197.924 36.7544 197.478 37.6758 197.478 38.543C197.478 39.1097 197.654 39.5531 198.366 39.5531C199.111 39.5482 199.557 38.6366 199.557 37.7645Z" fill="black"/>
<path d="M202.902 39.9276L202.995 39.3807C202.711 39.6566 202.24 40.0015 201.72 40.0015C201.249 40.0015 200.764 39.6812 200.764 38.7697C200.764 37.3555 201.411 36.3011 202.343 36.3011C202.848 36.3011 203.206 36.6411 203.432 36.8776L203.77 34.9953H204.329L203.461 39.9276H202.902ZM203.088 38.8584L203.353 37.3408C203.123 37.0451 202.799 36.7643 202.446 36.7643C201.759 36.7643 201.347 37.7448 201.347 38.7007C201.347 39.2131 201.534 39.5334 201.901 39.5334C202.353 39.5383 202.745 39.2033 203.088 38.8584Z" fill="#939598"/>
<path d="M202.902 39.9276L202.995 39.3807C202.711 39.6566 202.24 40.0015 201.72 40.0015C201.249 40.0015 200.764 39.6812 200.764 38.7697C200.764 37.3555 201.411 36.3011 202.343 36.3011C202.848 36.3011 203.206 36.6411 203.432 36.8776L203.77 34.9953H204.329L203.461 39.9276H202.902ZM203.088 38.8584L203.353 37.3408C203.123 37.0451 202.799 36.7643 202.446 36.7643C201.759 36.7643 201.347 37.7448 201.347 38.7007C201.347 39.2131 201.534 39.5334 201.901 39.5334C202.353 39.5383 202.745 39.2033 203.088 38.8584Z" fill="black"/>
<path d="M208.924 39.9276H205.972L206.031 39.5531C206.212 38.4987 206.928 38.0996 207.747 37.5723C208.434 37.1239 208.978 36.7544 208.978 36.2272C208.978 35.8675 208.728 35.6211 208.257 35.6211C207.786 35.6211 207.286 35.8823 207.051 36.0449L206.83 35.6211C207.149 35.4043 207.674 35.1185 208.311 35.1185C209.091 35.1185 209.567 35.5373 209.567 36.2075C209.567 37.1486 208.615 37.661 207.747 38.2227C207.129 38.6169 206.83 38.8781 206.732 39.4299H209.008L208.924 39.9276Z" fill="#939598"/>
<path d="M208.924 39.9276H205.972L206.031 39.5531C206.212 38.4987 206.928 38.0996 207.747 37.5723C208.434 37.1239 208.978 36.7544 208.978 36.2272C208.978 35.8675 208.728 35.6211 208.257 35.6211C207.786 35.6211 207.286 35.8823 207.051 36.0449L206.83 35.6211C207.149 35.4043 207.674 35.1185 208.311 35.1185C209.091 35.1185 209.567 35.5373 209.567 36.2075C209.567 37.1486 208.615 37.661 207.747 38.2227C207.129 38.6169 206.83 38.8781 206.732 39.4299H209.008L208.924 39.9276Z" fill="black"/>
<path d="M213.602 36.7741C213.602 37.937 213.009 40.0015 211.508 40.0015C210.429 40.0015 210.115 39.292 210.115 38.3459C210.115 37.1831 210.709 35.1185 212.209 35.1185C213.288 35.1185 213.602 35.8281 213.602 36.7741ZM213.019 36.7495C213.019 36.2173 212.96 35.6014 212.219 35.6014C211.13 35.6014 210.704 37.5723 210.704 38.3755C210.704 38.9126 210.763 39.5334 211.503 39.5334C212.592 39.5285 213.019 37.5576 213.019 36.7495Z" fill="#939598"/>
<path d="M213.602 36.7741C213.602 37.937 213.009 40.0015 211.508 40.0015C210.429 40.0015 210.115 39.292 210.115 38.3459C210.115 37.1831 210.709 35.1185 212.209 35.1185C213.288 35.1185 213.602 35.8281 213.602 36.7741ZM213.019 36.7495C213.019 36.2173 212.96 35.6014 212.219 35.6014C211.13 35.6014 210.704 37.5723 210.704 38.3755C210.704 38.9126 210.763 39.5334 211.503 39.5334C212.592 39.5285 213.019 37.5576 213.019 36.7495Z" fill="black"/>
<path d="M214.712 39.9276L215.438 35.8133L214.614 36.2518L214.423 35.8182L215.595 35.1924H216.125L215.291 39.9276H214.712Z" fill="#939598"/>
<path d="M214.712 39.9276L215.438 35.8133L214.614 36.2518L214.423 35.8182L215.595 35.1924H216.125L215.291 39.9276H214.712Z" fill="black"/>
<path d="M216.586 39.0702C216.822 39.2181 217.248 39.5039 217.807 39.5039C218.499 39.5039 218.96 39.0752 218.96 38.5085C218.96 37.8729 218.376 37.6019 217.768 37.6019H217.572L217.66 37.0944H217.891C218.489 37.0944 219.171 36.7101 219.171 36.1681C219.171 35.8379 218.916 35.6211 218.499 35.6211C218.062 35.6211 217.596 35.8527 217.346 36.0153L217.16 35.5965C217.317 35.4881 217.896 35.1235 218.597 35.1235C219.367 35.1235 219.769 35.562 219.769 36.0991C219.769 36.5721 219.445 37.0796 218.724 37.3506C219.181 37.4738 219.558 37.9271 219.558 38.5233C219.558 39.2624 219.004 40.0114 217.842 40.0114C217.047 40.0114 216.527 39.6517 216.287 39.4694L216.586 39.0702Z" fill="#939598"/>
<path d="M216.586 39.0702C216.822 39.2181 217.248 39.5039 217.807 39.5039C218.499 39.5039 218.96 39.0752 218.96 38.5085C218.96 37.8729 218.376 37.6019 217.768 37.6019H217.572L217.66 37.0944H217.891C218.489 37.0944 219.171 36.7101 219.171 36.1681C219.171 35.8379 218.916 35.6211 218.499 35.6211C218.062 35.6211 217.596 35.8527 217.346 36.0153L217.16 35.5965C217.317 35.4881 217.896 35.1235 218.597 35.1235C219.367 35.1235 219.769 35.562 219.769 36.0991C219.769 36.5721 219.445 37.0796 218.724 37.3506C219.181 37.4738 219.558 37.9271 219.558 38.5233C219.558 39.2624 219.004 40.0114 217.842 40.0114C217.047 40.0114 216.527 39.6517 216.287 39.4694L216.586 39.0702Z" fill="black"/>
<path d="M190.626 44H189.631V24.8993L186.139 21.3959L189.631 17.8877V0.479435H190.626V18.3016L187.551 21.3959L190.626 24.4854V44Z" fill="black"/>
<path d="M196.918 6.48092H197.659V5.21952L198.291 4.46071L199.988 6.48584H200.886L198.738 3.93842L200.709 1.59794H199.826L197.659 4.21435V1.59794H196.918V6.48092ZM203.215 1.5191C201.626 1.5191 201.013 2.64253 201.013 4.03696C201.013 5.42647 201.626 6.55483 203.215 6.55483C204.814 6.55483 205.422 5.42647 205.422 4.03696C205.427 2.64253 204.814 1.5191 203.215 1.5191ZM203.215 5.90935C202.146 5.90935 201.783 5.09141 201.783 4.03696C201.783 2.98744 202.146 2.16458 203.215 2.16458C204.289 2.16458 204.652 2.98744 204.652 4.03696C204.652 5.09141 204.294 5.90935 203.215 5.90935ZM210.111 6.48092H210.856V1.59301H210.077L208.527 4.84504L206.972 1.59301H206.202V6.48092H206.943V2.81499L208.306 5.66298H208.752L210.116 2.81006V6.48092H210.111ZM215.53 3.11555C215.53 2.02661 214.795 1.59301 213.676 1.59301H211.847V6.48092H212.593V4.6381H213.676C214.795 4.6381 215.53 4.21435 215.53 3.11555ZM214.77 3.11555C214.77 3.80045 214.285 4.0074 213.657 4.0074H212.588V2.22863H213.657C214.285 2.22863 214.77 2.44051 214.77 3.11555ZM219.532 6.48092V5.84036H217.046V4.35231H219.062V3.72654H217.046V2.23849H219.493V1.59794H216.305V6.48584H219.532V6.48092ZM223.966 2.23849V1.59794H220.229V2.23849H221.73V6.48092H222.475V2.23849H223.966ZM227.948 6.48092V5.84036H225.462V4.35231H227.478V3.72654H225.462V2.23849H227.909V1.59794H224.721V6.48584H227.948V6.48092ZM231.941 6.48092H232.706V1.59301H231.955V5.36734L229.601 1.59301H228.836V6.48092H229.577V2.70659L231.941 6.48092ZM237.453 2.22863C236.899 1.87879 236.252 1.5191 235.516 1.5191C234.452 1.5191 233.569 2.28776 233.569 4.03696C233.569 5.79109 234.452 6.55483 235.516 6.55483C236.252 6.55483 236.899 6.1902 237.453 5.84529L237.076 5.30329C236.644 5.56936 236.119 5.88471 235.585 5.88471C234.839 5.88471 234.339 5.19981 234.339 4.04189C234.339 2.88397 234.839 2.19907 235.585 2.19907C236.119 2.19907 236.649 2.51442 237.076 2.77557L237.453 2.22863ZM236.732 0.341469H236.212L235.643 0.913038L235.075 0.341469H234.555L235.256 1.26781H236.026L236.732 0.341469ZM241.352 6.48092H242.117V1.59301H241.367V5.36734L239.013 1.59301H238.248V6.48092H238.988V2.70659L241.352 6.48092ZM243.849 1.59794H243.108V6.48584H243.849V1.59794ZM200.577 10.61C200.023 10.2602 199.375 9.89555 198.639 9.89555C197.575 9.89555 196.692 10.6642 196.692 12.4134C196.692 14.1675 197.575 14.9313 198.639 14.9313C199.375 14.9313 200.023 14.5667 200.577 14.2217L200.199 13.6748C199.767 13.9409 199.243 14.2562 198.708 14.2562C197.968 14.2562 197.462 13.5713 197.462 12.4134C197.462 11.2555 197.963 10.5706 198.708 10.5706C199.243 10.5706 199.772 10.8859 200.199 11.152L200.577 10.61ZM204.579 14.8623V14.2217H202.092V12.7337H204.108V12.1079H202.092V10.6199H204.539V9.97932H201.352V14.8672H204.579V14.8623ZM208.468 14.8623H209.233V9.97439H208.483V13.7487L206.129 9.97439H205.363V14.8623H206.104V11.083L208.468 14.8623ZM213.642 10.6199V9.97932H209.905V10.6199H211.406V14.8623H212.151V10.6199H213.642ZM217.674 14.8623V14.2217H215.187V12.7337H217.203V12.1079H215.187V10.6199H217.634V9.97932H214.446V14.8672H217.674V14.8623ZM221.504 14.8623H222.323L221.023 12.8175C221.818 12.6943 222.313 12.2656 222.313 11.4132C222.313 10.3735 221.577 9.97439 220.445 9.97439H218.473V14.8623H219.218V12.8519H220.273L221.504 14.8623ZM221.553 11.4132C221.553 12.034 221.082 12.2459 220.415 12.2459H219.218V10.5854H220.44C221.077 10.5805 221.553 10.7923 221.553 11.4132ZM224.52 14.2759V14.8623H228.292V14.2217H225.467L228.257 10.5657V9.97932H224.672V10.6199H227.306L224.52 14.2759ZM232.47 14.8623H233.284L231.416 9.97439H230.602L228.743 14.8623H229.547L229.935 13.7438H232.083L232.47 14.8623ZM231.004 10.6445L231.872 13.1377H230.141L231.004 10.6445ZM200.842 20.7997C200.842 19.0555 199.964 18.3558 198.492 18.3558H196.918V23.2437H198.492C199.964 23.2388 200.842 22.544 200.842 20.7997ZM200.076 20.7997C200.076 22.0907 199.547 22.5982 198.438 22.5982H197.659V18.9963H198.438C199.552 18.9963 200.076 19.5088 200.076 20.7997ZM204.981 23.2388V22.5982H202.494V21.1101H204.51V20.4794H202.494V18.9914H204.942V18.3508H201.754V23.2388H204.981ZM207.909 20.4696C207.163 20.2035 206.526 20.105 206.526 19.5679C206.526 19.1097 206.948 18.9126 207.399 18.9126C207.821 18.9126 208.443 19.0949 208.855 19.3018L209.199 18.75C208.728 18.5036 208.002 18.2769 207.364 18.2769C206.418 18.2769 205.746 18.7844 205.746 19.6073C205.746 20.4647 206.477 20.7751 207.1 20.982C207.933 21.2777 208.6 21.4354 208.6 21.9872C208.6 22.4602 208.149 22.677 207.669 22.677C207.124 22.677 206.403 22.3962 205.981 22.1449L205.643 22.6967C206.099 22.9825 206.908 23.3127 207.683 23.3127C208.62 23.3127 209.38 22.815 209.38 21.9379C209.38 21.0215 208.551 20.6864 207.909 20.4696ZM211.048 18.3558H210.307V23.2437H211.048V18.3558ZM215.373 23.2388H216.089V20.5287H214.093V21.1348H215.373V22.0069C215.123 22.2385 214.608 22.6721 214.059 22.6721C213.279 22.6721 212.803 21.9379 212.803 20.7948C212.803 19.6369 213.314 18.952 214.059 18.952C214.628 18.952 215.197 19.3067 215.638 19.5728L216.011 19.021C215.447 18.6514 214.775 18.272 213.99 18.272C212.921 18.272 212.029 19.0407 212.029 20.7899C212.029 22.544 212.926 23.3077 213.927 23.3077C214.51 23.3077 214.981 23.0219 215.373 22.6869V23.2388ZM220.243 23.2388H221.009V18.3508H220.258V22.1252L217.904 18.3508H217.139V23.2388H217.88V19.4644L220.243 23.2388ZM200.827 31.6201H201.572V26.7322H200.793L199.243 29.9843L197.688 26.7322H196.918V31.6201H197.659V27.9542L199.022 30.8022H199.468L200.832 27.9493V31.6201H200.827ZM205.986 31.6201H206.8L204.932 26.7322H204.118L202.254 31.6201H203.058L203.446 30.5016H205.594L205.986 31.6201ZM204.52 27.4023L205.388 29.8956H203.657L204.52 27.4023ZM210.523 31.6201H211.288V26.7322H210.538V30.5066L208.183 26.7322H207.418V31.6201H208.164V27.8458L210.523 31.6201ZM215.761 31.6201H216.575L214.706 26.7322H213.892L212.029 31.6201H212.833L213.22 30.5016H215.368L215.761 31.6201ZM214.294 27.4023L215.162 29.8956H213.431L214.294 27.4023ZM220.268 31.6201H220.984V28.9101H218.988V29.5162H220.268V30.3883C220.018 30.6199 219.503 31.0535 218.954 31.0535C218.174 31.0535 217.698 30.3193 217.698 29.1762C217.698 28.0183 218.203 27.3334 218.954 27.3334C219.523 27.3334 220.091 27.6881 220.528 27.9542L220.901 27.4023C220.337 27.0328 219.665 26.6534 218.88 26.6534C217.811 26.6534 216.923 27.422 216.923 29.1712C216.923 30.9254 217.821 31.6891 218.821 31.6891C219.405 31.6891 219.876 31.4033 220.268 31.0683V31.6201ZM225.197 31.6201V30.9796H222.71V29.4915H224.726V28.8658H222.71V27.3777H225.158V26.7372H221.97V31.6251H225.197V31.6201ZM229.935 31.6201H230.68V26.7322H229.9L228.351 29.9843L226.796 26.7322H226.026V31.6201H226.766V27.9542L228.13 30.8022H228.576L229.94 27.9493V31.6201H229.935ZM234.859 31.6201V30.9796H232.372V29.4915H234.388V28.8658H232.372V27.3777H234.819V26.7372H231.632V31.6251H234.859V31.6201ZM238.831 31.6201H239.596V26.7322H238.846V30.5066L236.492 26.7322H235.727V31.6201H236.467V27.8458L238.831 31.6201ZM244.001 27.3777V26.7372H240.263V27.3777H241.764V31.6201H242.51V27.3777H244.001Z" fill="black"/>
</svg>
