<svg width="332" height="109" viewBox="0 0 332 109" fill="none" xmlns="http://www.w3.org/2000/svg">
<path d="M5.77167 9.58954H21.7651V30.3402L38.512 9.58954H57.2827L36.405 34.3363L57.5062 62.3994H38.5886L26.5727 45.9592L21.7651 51.6937V62.4058H5.77167V9.58954ZM97.2377 28.0759C91.0765 24.9072 86.2753 23.1688 82.0678 23.1688C76.2833 23.1688 73.6593 28.3773 73.6593 35.9977C73.6593 43.618 76.2897 48.8265 82.0678 48.8265C86.2753 48.8265 91.0765 47.0882 97.2377 43.9195L104.446 55.7669C96.6375 59.84 89.0526 63.2332 79.9673 63.2332C66.5213 63.2332 57.2125 54.2531 57.2125 35.9977C57.2125 17.7423 66.5213 8.76208 79.9673 8.76208C89.0526 8.76208 96.6375 12.1553 104.446 16.2285L97.2377 28.0759ZM132.385 62.4058H111.06V9.58954H132.385C150.785 9.58954 160.471 17.1329 160.471 35.9977C160.471 54.8624 150.785 62.4058 132.385 62.4058ZM130.731 23.0983H127.124V48.9035H130.731C139.14 48.9035 144.548 47.0176 144.548 36.0041C144.548 24.9841 139.14 23.0983 130.731 23.0983ZM209.058 35.2472L200.496 53.5796H192.311L183.749 35.3177V62.4058H167.756V9.58954H183.979L196.372 36.1452L208.764 9.58954H225.058V62.3994H209.064V35.2472H209.058Z" fill="#4BAC87"/>
<path d="M5.77167 9.58954H21.7651V30.3402L38.512 9.58954H57.2827L36.405 34.3363L57.5062 62.3994H38.5886L26.5727 45.9592L21.7651 51.6937V62.4058H5.77167V9.58954ZM97.2377 28.0759C91.0765 24.9072 86.2753 23.1688 82.0678 23.1688C76.2833 23.1688 73.6593 28.3773 73.6593 35.9977C73.6593 43.618 76.2897 48.8265 82.0678 48.8265C86.2753 48.8265 91.0765 47.0882 97.2377 43.9195L104.446 55.7669C96.6375 59.84 89.0526 63.2332 79.9673 63.2332C66.5213 63.2332 57.2125 54.2531 57.2125 35.9977C57.2125 17.7423 66.5213 8.76208 79.9673 8.76208C89.0526 8.76208 96.6375 12.1553 104.446 16.2285L97.2377 28.0759ZM132.385 62.4058H111.06V9.58954H132.385C150.785 9.58954 160.471 17.1329 160.471 35.9977C160.471 54.8624 150.785 62.4058 132.385 62.4058ZM130.731 23.0983H127.124V48.9035H130.731C139.14 48.9035 144.548 47.0176 144.548 36.0041C144.548 24.9841 139.14 23.0983 130.731 23.0983ZM209.058 35.2472L200.496 53.5796H192.311L183.749 35.3177V62.4058H167.756V9.58954H183.979L196.372 36.1452L208.764 9.58954H225.058V62.3994H209.064V35.2472H209.058Z" fill="#4BAC87"/>
<path d="M5.77167 9.59596H21.7651V30.3402L38.512 9.58954H57.2827L36.405 34.3363L57.5062 62.3994H38.5886L26.5727 45.9592L21.7651 51.6937V62.4058H5.77167V9.59596ZM97.2377 28.0759C91.0765 24.9072 86.2753 23.1688 82.0678 23.1688C76.2833 23.1688 73.6593 28.3773 73.6593 35.9977C73.6593 43.618 76.2897 48.8201 82.0678 48.8201C86.2753 48.8201 91.0765 47.0882 97.2377 43.913L104.446 55.7605C96.6375 59.8336 89.0526 63.2268 79.9673 63.2268C66.5213 63.2268 57.2125 54.2467 57.2125 35.9912C57.2125 17.7358 66.5213 8.75567 79.9673 8.75567C89.0526 8.75567 96.6375 12.1489 104.446 16.222L97.2377 28.0759ZM132.385 62.4058H111.06V9.59596H132.385C150.785 9.59596 160.471 17.1393 160.471 36.0041C160.471 54.8624 150.785 62.4058 132.385 62.4058ZM130.731 23.0983H127.124V48.9035H130.731C139.14 48.9035 144.548 47.0176 144.548 36.0041C144.548 24.9841 139.14 23.0983 130.731 23.0983ZM209.058 35.2472L200.496 53.5796H192.311L183.749 35.3177V62.4058H167.756V9.59596H183.979L196.372 36.1516L208.764 9.59596H225.058V62.4058H209.064V35.2472H209.058Z" fill="#4BAC87"/>
<path d="M266.283 57.2101C266.283 58.8907 265.389 60.1607 263.997 60.1607C262.784 60.1607 262.12 59.4808 262.12 58.3006C262.12 56.62 263.014 55.3435 264.406 55.3435C265.619 55.3435 266.283 56.0235 266.283 57.2101ZM265.555 57.2486C265.555 56.5174 265.325 55.9336 264.4 55.9336C263.429 55.9336 262.848 57.1331 262.848 58.2621C262.848 58.9997 263.078 59.577 264.004 59.577C264.974 59.5706 265.555 58.384 265.555 57.2486Z" fill="#939598"/>
<path d="M266.283 57.2101C266.283 58.8907 265.389 60.1607 263.997 60.1607C262.784 60.1607 262.12 59.4808 262.12 58.3006C262.12 56.62 263.014 55.3435 264.406 55.3435C265.619 55.3435 266.283 56.0235 266.283 57.2101ZM265.555 57.2486C265.555 56.5174 265.325 55.9336 264.4 55.9336C263.429 55.9336 262.848 57.1331 262.848 58.2621C262.848 58.9997 263.078 59.577 264.004 59.577C264.974 59.5706 265.555 58.384 265.555 57.2486Z" fill="black"/>
<path d="M269.91 60.0645L270.031 59.3525C269.661 59.7117 269.048 60.1607 268.371 60.1607C267.758 60.1607 267.126 59.7438 267.126 58.5571C267.126 56.7162 267.969 55.3435 269.182 55.3435C269.839 55.3435 270.305 55.7861 270.599 56.094L271.04 53.6437H271.768L270.637 60.0645H269.91ZM270.152 58.6726L270.497 56.697C270.197 56.3121 269.776 55.9465 269.316 55.9465C268.422 55.9465 267.886 57.2229 267.886 58.4673C267.886 59.1344 268.128 59.5514 268.607 59.5514C269.195 59.5578 269.705 59.1216 270.152 58.6726Z" fill="#939598"/>
<path d="M269.91 60.0645L270.031 59.3525C269.661 59.7117 269.048 60.1607 268.371 60.1607C267.758 60.1607 267.126 59.7438 267.126 58.5571C267.126 56.7162 267.969 55.3435 269.182 55.3435C269.839 55.3435 270.305 55.7861 270.599 56.094L271.04 53.6437H271.768L270.637 60.0645H269.91ZM270.152 58.6726L270.497 56.697C270.197 56.3121 269.776 55.9465 269.316 55.9465C268.422 55.9465 267.886 57.2229 267.886 58.4673C267.886 59.1344 268.128 59.5514 268.607 59.5514C269.195 59.5578 269.705 59.1216 270.152 58.6726Z" fill="black"/>
<path d="M277.75 60.0645H273.906L273.983 59.577C274.219 58.2043 275.151 57.6848 276.218 56.9984C277.111 56.4147 277.82 55.9336 277.82 55.2473C277.82 54.7791 277.495 54.4583 276.882 54.4583C276.269 54.4583 275.617 54.7983 275.311 55.01L275.024 54.4583C275.439 54.1761 276.122 53.8041 276.952 53.8041C277.967 53.8041 278.586 54.3493 278.586 55.2216C278.586 56.4468 277.348 57.1139 276.218 57.8451C275.413 58.3583 275.024 58.6983 274.896 59.4167H277.858L277.75 60.0645Z" fill="#939598"/>
<path d="M277.75 60.0645H273.906L273.983 59.577C274.219 58.2043 275.151 57.6848 276.218 56.9984C277.111 56.4147 277.82 55.9336 277.82 55.2473C277.82 54.7791 277.495 54.4583 276.882 54.4583C276.269 54.4583 275.617 54.7983 275.311 55.01L275.024 54.4583C275.439 54.1761 276.122 53.8041 276.952 53.8041C277.967 53.8041 278.586 54.3493 278.586 55.2216C278.586 56.4468 277.348 57.1139 276.218 57.8451C275.413 58.3583 275.024 58.6983 274.896 59.4167H277.858L277.75 60.0645Z" fill="black"/>
<path d="M283.841 55.9593C283.841 57.4731 283.068 60.1607 281.115 60.1607C279.71 60.1607 279.301 59.2371 279.301 58.0055C279.301 56.4917 280.074 53.8041 282.028 53.8041C283.432 53.8041 283.841 54.7277 283.841 55.9593ZM283.081 55.9272C283.081 55.2345 283.004 54.4327 282.04 54.4327C280.623 54.4327 280.068 56.9984 280.068 58.044C280.068 58.7432 280.144 59.5514 281.108 59.5514C282.526 59.545 283.081 56.9792 283.081 55.9272Z" fill="#939598"/>
<path d="M283.841 55.9593C283.841 57.4731 283.068 60.1607 281.115 60.1607C279.71 60.1607 279.301 59.2371 279.301 58.0055C279.301 56.4917 280.074 53.8041 282.028 53.8041C283.432 53.8041 283.841 54.7277 283.841 55.9593ZM283.081 55.9272C283.081 55.2345 283.004 54.4327 282.04 54.4327C280.623 54.4327 280.068 56.9984 280.068 58.044C280.068 58.7432 280.144 59.5514 281.108 59.5514C282.526 59.545 283.081 56.9792 283.081 55.9272Z" fill="black"/>
<path d="M285.284 60.0645L286.229 54.7085L285.156 55.2794L284.907 54.7149L286.433 53.9003H287.123L286.037 60.0645H285.284Z" fill="#939598"/>
<path d="M285.284 60.0645L286.229 54.7085L285.156 55.2794L284.907 54.7149L286.433 53.9003H287.123L286.037 60.0645H285.284Z" fill="black"/>
<path d="M287.723 58.9484C288.029 59.1409 288.585 59.5129 289.312 59.5129C290.213 59.5129 290.813 58.9548 290.813 58.2172C290.813 57.3897 290.053 57.0369 289.261 57.0369H289.006L289.121 56.3762H289.421C290.2 56.3762 291.087 55.8759 291.087 55.1703C291.087 54.7406 290.755 54.4583 290.213 54.4583C289.644 54.4583 289.038 54.7598 288.712 54.9715L288.47 54.4263C288.674 54.2851 289.427 53.8105 290.34 53.8105C291.343 53.8105 291.866 54.3814 291.866 55.0805C291.866 55.6963 291.445 56.357 290.506 56.7098C291.1 56.8702 291.592 57.4603 291.592 58.2364C291.592 59.1986 290.87 60.1736 289.357 60.1736C288.323 60.1736 287.646 59.7053 287.333 59.468L287.723 58.9484Z" fill="#939598"/>
<path d="M287.723 58.9484C288.029 59.1409 288.585 59.5129 289.312 59.5129C290.213 59.5129 290.813 58.9548 290.813 58.2172C290.813 57.3897 290.053 57.0369 289.261 57.0369H289.006L289.121 56.3762H289.421C290.2 56.3762 291.087 55.8759 291.087 55.1703C291.087 54.7406 290.755 54.4583 290.213 54.4583C289.644 54.4583 289.038 54.7598 288.712 54.9715L288.47 54.4263C288.674 54.2851 289.427 53.8105 290.34 53.8105C291.343 53.8105 291.866 54.3814 291.866 55.0805C291.866 55.6963 291.445 56.357 290.506 56.7098C291.1 56.8702 291.592 57.4603 291.592 58.2364C291.592 59.1986 290.87 60.1736 289.357 60.1736C288.323 60.1736 287.646 59.7053 287.333 59.468L287.723 58.9484Z" fill="black"/>
<path d="M253.929 105.271H252.633V40.5006L248.087 35.9399L252.633 31.3729V8.71077H253.929V31.9117L249.926 35.9399L253.929 39.9618V105.271Z" fill="black"/>
<path d="M262.12 16.5235H263.084V14.8814L263.908 13.8936L266.117 16.5299H267.286L264.489 13.2137L267.056 10.1668H265.906L263.084 13.5729V10.1668H262.12V16.5235ZM270.318 10.0642C268.25 10.0642 267.452 11.5267 267.452 13.342C267.452 15.1508 268.25 16.6197 270.318 16.6197C272.4 16.6197 273.191 15.1508 273.191 13.342C273.198 11.5267 272.4 10.0642 270.318 10.0642ZM270.318 15.7794C268.926 15.7794 268.454 14.7147 268.454 13.342C268.454 11.9757 268.926 10.9045 270.318 10.9045C271.716 10.9045 272.189 11.9757 272.189 13.342C272.189 14.7147 271.723 15.7794 270.318 15.7794ZM279.295 16.5235H280.265V10.1604H279.25L277.233 14.3939L275.209 10.1604H274.206V16.5235H275.171V11.7512L276.945 15.4587H277.526L279.301 11.7448V16.5235H279.295ZM286.35 12.1425C286.35 10.7249 285.392 10.1604 283.937 10.1604H281.555V16.5235H282.526V14.1245H283.937C285.392 14.1245 286.35 13.5729 286.35 12.1425ZM285.36 12.1425C285.36 13.0341 284.728 13.3035 283.911 13.3035H282.519V10.9879H283.911C284.728 10.9879 285.36 11.2637 285.36 12.1425ZM291.56 16.5235V15.6896H288.323V13.7525H290.947V12.9379H288.323V11.0007H291.509V10.1668H287.359V16.5299H291.56V16.5235ZM297.332 11.0007V10.1668H292.466V11.0007H294.42V16.5235H295.391V11.0007H297.332ZM302.516 16.5235V15.6896H299.279V13.7525H301.903V12.9379H299.279V11.0007H302.465V10.1668H298.315V16.5299H302.516V16.5235ZM307.713 16.5235H308.709V10.1604H307.732V15.0739L304.667 10.1604H303.671V16.5235H304.636V11.6101L307.713 16.5235ZM314.889 10.9879C314.168 10.5325 313.325 10.0642 312.367 10.0642C310.982 10.0642 309.833 11.0649 309.833 13.342C309.833 15.6255 310.982 16.6197 312.367 16.6197C313.325 16.6197 314.168 16.1451 314.889 15.6961L314.398 14.9905C313.836 15.3369 313.153 15.7474 312.457 15.7474C311.486 15.7474 310.835 14.8558 310.835 13.3484C310.835 11.841 311.486 10.9494 312.457 10.9494C313.153 10.9494 313.842 11.3599 314.398 11.6999L314.889 10.9879ZM313.951 8.53117H313.274L312.533 9.27524L311.793 8.53117H311.116L312.029 9.73708H313.031L313.951 8.53117ZM319.965 16.5235H320.961V10.1604H319.984V15.0739L316.92 10.1604H315.924V16.5235H316.888V11.6101L319.965 16.5235ZM323.215 10.1668H322.251V16.5299H323.215V10.1668ZM266.883 21.8988C266.162 21.4434 265.319 20.9687 264.361 20.9687C262.976 20.9687 261.827 21.9694 261.827 24.2465C261.827 26.53 262.976 27.5242 264.361 27.5242C265.319 27.5242 266.162 27.0496 266.883 26.6006L266.392 25.8886C265.83 26.2349 265.147 26.6455 264.451 26.6455C263.487 26.6455 262.829 25.7539 262.829 24.2465C262.829 22.7391 263.48 21.8475 264.451 21.8475C265.147 21.8475 265.836 22.258 266.392 22.6044L266.883 21.8988ZM272.093 27.4344V26.6006H268.856V24.6634H271.48V23.8488H268.856V21.9116H272.042V21.0778H267.892V27.4408H272.093V27.4344ZM277.156 27.4344H278.152V21.0713H277.175V25.9848L274.111 21.0713H273.115V27.4344H274.079V22.5146L277.156 27.4344ZM283.892 21.9116V21.0778H279.027V21.9116H280.981V27.4344H281.951V21.9116H283.892ZM289.14 27.4344V26.6006H285.903V24.6634H288.527V23.8488H285.903V21.9116H289.089V21.0778H284.939V27.4408H289.14V27.4344ZM294.126 27.4344H295.193L293.501 24.7724C294.535 24.6121 295.18 24.054 295.18 22.9443C295.18 21.5909 294.222 21.0713 292.747 21.0713H290.181V27.4344H291.151V24.8174H292.524L294.126 27.4344ZM294.19 22.9443C294.19 23.7526 293.577 24.0284 292.709 24.0284H291.151V21.8667H292.741C293.571 21.8603 294.19 22.1361 294.19 22.9443ZM298.053 26.6711V27.4344H302.963V26.6006H299.285L302.918 21.8411V21.0778H298.251V21.9116H301.679L298.053 26.6711ZM308.402 27.4344H309.462L307.03 21.0713H305.97L303.55 27.4344H304.597L305.102 25.9784H307.898L308.402 27.4344ZM306.493 21.9437L307.624 25.1894H305.37L306.493 21.9437ZM267.228 35.1638C267.228 32.8931 266.085 31.9822 264.17 31.9822H262.12V38.3453H264.17C266.085 38.3389 267.228 37.4345 267.228 35.1638ZM266.232 35.1638C266.232 36.8444 265.543 37.5051 264.1 37.5051H263.084V32.8161H264.1C265.549 32.8161 266.232 33.4832 266.232 35.1638ZM272.617 38.3389V37.5051H269.38V35.5679H272.004V34.7469H269.38V32.8097H272.566V31.9758H268.416V38.3389H272.617ZM276.428 34.734C275.458 34.3877 274.628 34.2594 274.628 33.5602C274.628 32.9637 275.177 32.7071 275.764 32.7071C276.313 32.7071 277.124 32.9444 277.661 33.2138L278.107 32.4954C277.495 32.1747 276.55 31.8796 275.72 31.8796C274.487 31.8796 273.613 32.5403 273.613 33.6115C273.613 34.7276 274.564 35.1317 275.375 35.4011C276.46 35.786 277.329 35.9913 277.329 36.7097C277.329 37.3254 276.741 37.6077 276.115 37.6077C275.407 37.6077 274.468 37.2421 273.919 36.9149L273.479 37.6333C274.072 38.0054 275.126 38.4351 276.135 38.4351C277.354 38.4351 278.344 37.7873 278.344 36.6455C278.344 35.4524 277.265 35.0163 276.428 34.734ZM280.514 31.9822H279.55V38.3453H280.514V31.9822ZM286.146 38.3389H287.078V34.811H284.479V35.6H286.146V36.7353C285.82 37.0368 285.15 37.6013 284.435 37.6013C283.419 37.6013 282.8 36.6455 282.8 35.1574C282.8 33.65 283.464 32.7584 284.435 32.7584C285.175 32.7584 285.916 33.2202 286.49 33.5666L286.976 32.8482C286.241 32.3671 285.367 31.8732 284.345 31.8732C282.953 31.8732 281.791 32.8738 281.791 35.151C281.791 37.4345 282.96 38.4287 284.262 38.4287C285.022 38.4287 285.635 38.0567 286.146 37.6205V38.3389ZM292.486 38.3389H293.482V31.9758H292.505V36.8893L289.44 31.9758H288.444V38.3389H289.408V33.4255L292.486 38.3389ZM267.209 49.2498H268.179V42.8867H267.164L265.147 47.1203L263.123 42.8867H262.12V49.2498H263.084V44.4775L264.859 48.185H265.44L267.215 44.4711V49.2498H267.209ZM273.926 49.2498H274.985L272.553 42.8867H271.493L269.067 49.2498H270.114L270.618 47.7938H273.415L273.926 49.2498ZM272.017 43.7591L273.147 47.0048H270.893L272.017 43.7591ZM279.831 49.2498H280.827V42.8867H279.85V47.8002L276.786 42.8867H275.79V49.2498H276.76V44.3364L279.831 49.2498ZM286.65 49.2498H287.71L285.277 42.8867H284.218L281.791 49.2498H282.838L283.343 47.7938H286.139L286.65 49.2498ZM284.741 43.7591L285.871 47.0048H283.617L284.741 43.7591ZM292.518 49.2498H293.45V45.7219H290.851V46.5109H292.518V47.6462C292.192 47.9477 291.522 48.5122 290.806 48.5122C289.791 48.5122 289.172 47.5564 289.172 46.0683C289.172 44.5609 289.83 43.6693 290.806 43.6693C291.547 43.6693 292.288 44.1311 292.856 44.4775L293.341 43.7591C292.607 43.278 291.732 42.7841 290.711 42.7841C289.319 42.7841 288.163 43.7848 288.163 46.0619C288.163 48.3454 289.332 49.3396 290.634 49.3396C291.394 49.3396 292.007 48.9676 292.518 48.5314V49.2498ZM298.934 49.2498V48.416H295.697V46.4788H298.321V45.6642H295.697V43.727H298.883V42.8932H294.733V49.2563H298.934V49.2498ZM305.102 49.2498H306.072V42.8867H305.057L303.039 47.1203L301.015 42.8867H300.013V49.2498H300.977V44.4775L302.752 48.185H303.333L305.108 44.4711V49.2498H305.102ZM311.512 49.2498V48.416H308.275V46.4788H310.899V45.6642H308.275V43.727H311.461V42.8932H307.311V49.2563H311.512V49.2498ZM316.683 49.2498H317.679V42.8867H316.702V47.8002L313.638 42.8867H312.642V49.2498H313.606V44.3364L316.683 49.2498ZM323.413 43.727V42.8932H318.548V43.727H320.501V49.2498H321.472V43.727H323.413Z" fill="black"/>
</svg>
