<svg width="221" height="56" viewBox="0 0 221 56" fill="none" xmlns="http://www.w3.org/2000/svg">
<path d="M0.771667 1.59596H16.7651V22.3402L33.512 1.58954H52.2827L31.405 26.3363L52.5062 54.3994H33.5886L21.5727 37.9592L16.7651 43.6937V54.4058H0.771667V1.59596ZM92.2377 20.0759C86.0765 16.9072 81.2753 15.1688 77.0678 15.1688C71.2833 15.1688 68.6593 20.3773 68.6593 27.9977C68.6593 35.618 71.2897 40.8201 77.0678 40.8201C81.2753 40.8201 86.0765 39.0882 92.2377 35.913L99.4459 47.7605C91.6375 51.8336 84.0526 55.2268 74.9673 55.2268C61.5213 55.2268 52.2125 46.2467 52.2125 27.9912C52.2125 9.73584 61.5213 0.755669 74.9673 0.755669C84.0526 0.755669 91.6375 4.14889 99.4459 8.22204L92.2377 20.0759ZM127.385 54.4058H106.06V1.59596H127.385C145.785 1.59596 155.471 9.1393 155.471 28.0041C155.471 46.8624 145.785 54.4058 127.385 54.4058ZM125.731 15.0983H122.124V40.9035H125.731C134.14 40.9035 139.548 39.0176 139.548 28.0041C139.548 16.9841 134.14 15.0983 125.731 15.0983ZM204.058 27.2472L195.496 45.5796H187.311L178.749 27.3177V54.4058H162.756V1.59596H178.979L191.372 28.1516L203.764 1.59596H220.058V54.4058H204.064V27.2472H204.058Z" fill="#4BAC87"/>
</svg>
