<svg width="319" height="98" viewBox="0 0 319 98" fill="none" xmlns="http://www.w3.org/2000/svg">
<path d="M0.771667 1.58954H16.7651V22.3402L33.512 1.58954H52.2827L31.405 26.3363L52.5062 54.3994H33.5886L21.5727 37.9592L16.7651 43.6937V54.4058H0.771667V1.58954ZM92.2377 20.0759C86.0765 16.9072 81.2753 15.1688 77.0678 15.1688C71.2833 15.1688 68.6593 20.3773 68.6593 27.9977C68.6593 35.618 71.2897 40.8265 77.0678 40.8265C81.2753 40.8265 86.0765 39.0882 92.2377 35.9195L99.4459 47.7669C91.6375 51.84 84.0526 55.2332 74.9673 55.2332C61.5213 55.2332 52.2125 46.2531 52.2125 27.9977C52.2125 9.74226 61.5213 0.762085 74.9673 0.762085C84.0526 0.762085 91.6375 4.15531 99.4459 8.22846L92.2377 20.0759ZM127.385 54.4058H106.06V1.58954H127.385C145.785 1.58954 155.471 9.13289 155.471 27.9977C155.471 46.8624 145.785 54.4058 127.385 54.4058ZM125.731 15.0983H122.124V40.9035H125.731C134.14 40.9035 139.548 39.0176 139.548 28.0041C139.548 16.9841 134.14 15.0983 125.731 15.0983ZM204.058 27.2472L195.496 45.5796H187.311L178.749 27.3177V54.4058H162.756V1.58954H178.979L191.372 28.1452L203.764 1.58954H220.058V54.3994H204.064V27.2472H204.058Z" fill="#4BAC87"/>
<path d="M0.771667 1.58954H16.7651V22.3402L33.512 1.58954H52.2827L31.405 26.3363L52.5062 54.3994H33.5886L21.5727 37.9592L16.7651 43.6937V54.4058H0.771667V1.58954ZM92.2377 20.0759C86.0765 16.9072 81.2753 15.1688 77.0678 15.1688C71.2833 15.1688 68.6593 20.3773 68.6593 27.9977C68.6593 35.618 71.2897 40.8265 77.0678 40.8265C81.2753 40.8265 86.0765 39.0882 92.2377 35.9195L99.4459 47.7669C91.6375 51.84 84.0526 55.2332 74.9673 55.2332C61.5213 55.2332 52.2125 46.2531 52.2125 27.9977C52.2125 9.74226 61.5213 0.762085 74.9673 0.762085C84.0526 0.762085 91.6375 4.15531 99.4459 8.22846L92.2377 20.0759ZM127.385 54.4058H106.06V1.58954H127.385C145.785 1.58954 155.471 9.13289 155.471 27.9977C155.471 46.8624 145.785 54.4058 127.385 54.4058ZM125.731 15.0983H122.124V40.9035H125.731C134.14 40.9035 139.548 39.0176 139.548 28.0041C139.548 16.9841 134.14 15.0983 125.731 15.0983ZM204.058 27.2472L195.496 45.5796H187.311L178.749 27.3177V54.4058H162.756V1.58954H178.979L191.372 28.1452L203.764 1.58954H220.058V54.3994H204.064V27.2472H204.058Z" fill="#4BAC87"/>
<path d="M0.771667 1.59596H16.7651V22.3402L33.512 1.58954H52.2827L31.405 26.3363L52.5062 54.3994H33.5886L21.5727 37.9592L16.7651 43.6937V54.4058H0.771667V1.59596ZM92.2377 20.0759C86.0765 16.9072 81.2753 15.1688 77.0678 15.1688C71.2833 15.1688 68.6593 20.3773 68.6593 27.9977C68.6593 35.618 71.2897 40.8201 77.0678 40.8201C81.2753 40.8201 86.0765 39.0882 92.2377 35.913L99.4459 47.7605C91.6375 51.8336 84.0526 55.2268 74.9673 55.2268C61.5213 55.2268 52.2125 46.2467 52.2125 27.9912C52.2125 9.73584 61.5213 0.755669 74.9673 0.755669C84.0526 0.755669 91.6375 4.14889 99.4459 8.22204L92.2377 20.0759ZM127.385 54.4058H106.06V1.59596H127.385C145.785 1.59596 155.471 9.1393 155.471 28.0041C155.471 46.8624 145.785 54.4058 127.385 54.4058ZM125.731 15.0983H122.124V40.9035H125.731C134.14 40.9035 139.548 39.0176 139.548 28.0041C139.548 16.9841 134.14 15.0983 125.731 15.0983ZM204.058 27.2472L195.496 45.5796H187.311L178.749 27.3177V54.4058H162.756V1.59596H178.979L191.372 28.1516L203.764 1.59596H220.058V54.4058H204.064V27.2472H204.058Z" fill="#4BAC87"/>
<path d="M261.283 49.2101C261.283 50.8907 260.389 52.1607 258.997 52.1607C257.784 52.1607 257.12 51.4808 257.12 50.3006C257.12 48.62 258.014 47.3435 259.406 47.3435C260.619 47.3435 261.283 48.0235 261.283 49.2101ZM260.555 49.2486C260.555 48.5174 260.325 47.9336 259.4 47.9336C258.429 47.9336 257.848 49.1331 257.848 50.2621C257.848 50.9997 258.078 51.577 259.004 51.577C259.974 51.5706 260.555 50.384 260.555 49.2486Z" fill="#939598"/>
<path d="M261.283 49.2101C261.283 50.8907 260.389 52.1607 258.997 52.1607C257.784 52.1607 257.12 51.4808 257.12 50.3006C257.12 48.62 258.014 47.3435 259.406 47.3435C260.619 47.3435 261.283 48.0235 261.283 49.2101ZM260.555 49.2486C260.555 48.5174 260.325 47.9336 259.4 47.9336C258.429 47.9336 257.848 49.1331 257.848 50.2621C257.848 50.9997 258.078 51.577 259.004 51.577C259.974 51.5706 260.555 50.384 260.555 49.2486Z" fill="black"/>
<path d="M264.91 52.0645L265.031 51.3525C264.661 51.7117 264.048 52.1607 263.371 52.1607C262.758 52.1607 262.126 51.7438 262.126 50.5571C262.126 48.7162 262.969 47.3435 264.182 47.3435C264.839 47.3435 265.305 47.7861 265.599 48.094L266.04 45.6437H266.768L265.637 52.0645H264.91ZM265.152 50.6726L265.497 48.697C265.197 48.3121 264.776 47.9465 264.316 47.9465C263.422 47.9465 262.886 49.2229 262.886 50.4673C262.886 51.1344 263.128 51.5514 263.607 51.5514C264.195 51.5578 264.705 51.1216 265.152 50.6726Z" fill="#939598"/>
<path d="M264.91 52.0645L265.031 51.3525C264.661 51.7117 264.048 52.1607 263.371 52.1607C262.758 52.1607 262.126 51.7438 262.126 50.5571C262.126 48.7162 262.969 47.3435 264.182 47.3435C264.839 47.3435 265.305 47.7861 265.599 48.094L266.04 45.6437H266.768L265.637 52.0645H264.91ZM265.152 50.6726L265.497 48.697C265.197 48.3121 264.776 47.9465 264.316 47.9465C263.422 47.9465 262.886 49.2229 262.886 50.4673C262.886 51.1344 263.128 51.5514 263.607 51.5514C264.195 51.5578 264.705 51.1216 265.152 50.6726Z" fill="black"/>
<path d="M272.75 52.0645H268.906L268.983 51.577C269.219 50.2043 270.151 49.6848 271.218 48.9984C272.111 48.4147 272.82 47.9336 272.82 47.2473C272.82 46.7791 272.495 46.4583 271.882 46.4583C271.269 46.4583 270.617 46.7983 270.311 47.01L270.024 46.4583C270.439 46.1761 271.122 45.8041 271.952 45.8041C272.967 45.8041 273.586 46.3493 273.586 47.2216C273.586 48.4468 272.348 49.1139 271.218 49.8451C270.413 50.3583 270.024 50.6983 269.896 51.4167H272.858L272.75 52.0645Z" fill="#939598"/>
<path d="M272.75 52.0645H268.906L268.983 51.577C269.219 50.2043 270.151 49.6848 271.218 48.9984C272.111 48.4147 272.82 47.9336 272.82 47.2473C272.82 46.7791 272.495 46.4583 271.882 46.4583C271.269 46.4583 270.617 46.7983 270.311 47.01L270.024 46.4583C270.439 46.1761 271.122 45.8041 271.952 45.8041C272.967 45.8041 273.586 46.3493 273.586 47.2216C273.586 48.4468 272.348 49.1139 271.218 49.8451C270.413 50.3583 270.024 50.6983 269.896 51.4167H272.858L272.75 52.0645Z" fill="black"/>
<path d="M278.841 47.9593C278.841 49.4731 278.068 52.1607 276.115 52.1607C274.71 52.1607 274.301 51.2371 274.301 50.0055C274.301 48.4917 275.074 45.8041 277.028 45.8041C278.432 45.8041 278.841 46.7277 278.841 47.9593ZM278.081 47.9272C278.081 47.2345 278.004 46.4327 277.04 46.4327C275.623 46.4327 275.068 48.9984 275.068 50.044C275.068 50.7432 275.144 51.5514 276.108 51.5514C277.526 51.545 278.081 48.9792 278.081 47.9272Z" fill="#939598"/>
<path d="M278.841 47.9593C278.841 49.4731 278.068 52.1607 276.115 52.1607C274.71 52.1607 274.301 51.2371 274.301 50.0055C274.301 48.4917 275.074 45.8041 277.028 45.8041C278.432 45.8041 278.841 46.7277 278.841 47.9593ZM278.081 47.9272C278.081 47.2345 278.004 46.4327 277.04 46.4327C275.623 46.4327 275.068 48.9984 275.068 50.044C275.068 50.7432 275.144 51.5514 276.108 51.5514C277.526 51.545 278.081 48.9792 278.081 47.9272Z" fill="black"/>
<path d="M280.284 52.0645L281.229 46.7085L280.156 47.2794L279.907 46.7149L281.433 45.9003H282.123L281.037 52.0645H280.284Z" fill="#939598"/>
<path d="M280.284 52.0645L281.229 46.7085L280.156 47.2794L279.907 46.7149L281.433 45.9003H282.123L281.037 52.0645H280.284Z" fill="black"/>
<path d="M282.723 50.9484C283.029 51.1409 283.585 51.5129 284.312 51.5129C285.213 51.5129 285.813 50.9548 285.813 50.2172C285.813 49.3897 285.053 49.0369 284.261 49.0369H284.006L284.121 48.3762H284.421C285.2 48.3762 286.087 47.8759 286.087 47.1703C286.087 46.7406 285.755 46.4583 285.213 46.4583C284.644 46.4583 284.038 46.7598 283.712 46.9715L283.47 46.4263C283.674 46.2851 284.427 45.8105 285.34 45.8105C286.343 45.8105 286.866 46.3814 286.866 47.0805C286.866 47.6963 286.445 48.357 285.506 48.7098C286.1 48.8702 286.592 49.4603 286.592 50.2364C286.592 51.1986 285.87 52.1736 284.357 52.1736C283.323 52.1736 282.646 51.7053 282.333 51.468L282.723 50.9484Z" fill="#939598"/>
<path d="M282.723 50.9484C283.029 51.1409 283.585 51.5129 284.312 51.5129C285.213 51.5129 285.813 50.9548 285.813 50.2172C285.813 49.3897 285.053 49.0369 284.261 49.0369H284.006L284.121 48.3762H284.421C285.2 48.3762 286.087 47.8759 286.087 47.1703C286.087 46.7406 285.755 46.4583 285.213 46.4583C284.644 46.4583 284.038 46.7598 283.712 46.9715L283.47 46.4263C283.674 46.2851 284.427 45.8105 285.34 45.8105C286.343 45.8105 286.866 46.3814 286.866 47.0805C286.866 47.6963 286.445 48.357 285.506 48.7098C286.1 48.8702 286.592 49.4603 286.592 50.2364C286.592 51.1986 285.87 52.1736 284.357 52.1736C283.323 52.1736 282.646 51.7053 282.333 51.468L282.723 50.9484Z" fill="black"/>
<path d="M248.929 97.2713H247.633V32.5006L243.087 27.9399L247.633 23.3729V0.71077H248.929V23.9117L244.926 27.9399L248.929 31.9618V97.2713Z" fill="black"/>
<path d="M257.12 8.52352H258.084V6.88143L258.908 5.89361L261.117 8.52993H262.286L259.489 5.21369L262.056 2.16684H260.906L258.084 5.57289V2.16684H257.12V8.52352ZM265.318 2.06421C263.25 2.06421 262.452 3.52669 262.452 5.34197C262.452 7.15084 263.25 8.61974 265.318 8.61974C267.4 8.61974 268.191 7.15084 268.191 5.34197C268.198 3.52669 267.4 2.06421 265.318 2.06421ZM265.318 7.77945C263.926 7.77945 263.454 6.71466 263.454 5.34197C263.454 3.9757 263.926 2.9045 265.318 2.9045C266.716 2.9045 267.189 3.9757 267.189 5.34197C267.189 6.71466 266.723 7.77945 265.318 7.77945ZM274.295 8.52352H275.265V2.16043H274.25L272.233 6.39394L270.209 2.16043H269.206V8.52352H270.171V3.7512L271.945 7.45873H272.526L274.301 3.74478V8.52352H274.295ZM281.35 4.14248C281.35 2.72489 280.392 2.16043 278.937 2.16043H276.555V8.52352H277.526V6.12453H278.937C280.392 6.12453 281.35 5.57289 281.35 4.14248ZM280.36 4.14248C280.36 5.03408 279.728 5.30349 278.911 5.30349H277.519V2.98788H278.911C279.728 2.98788 280.36 3.2637 280.36 4.14248ZM286.56 8.52352V7.68965H283.323V5.7525H285.947V4.93787H283.323V3.00071H286.509V2.16684H282.359V8.52993H286.56V8.52352ZM292.332 3.00071V2.16684H287.466V3.00071H289.42V8.52352H290.391V3.00071H292.332ZM297.516 8.52352V7.68965H294.279V5.7525H296.903V4.93787H294.279V3.00071H297.465V2.16684H293.315V8.52993H297.516V8.52352ZM302.713 8.52352H303.709V2.16043H302.732V7.07386L299.667 2.16043H298.671V8.52352H299.636V3.61008L302.713 8.52352ZM309.889 2.98788C309.168 2.53246 308.325 2.06421 307.367 2.06421C305.982 2.06421 304.833 3.06486 304.833 5.34197C304.833 7.6255 305.982 8.61974 307.367 8.61974C308.325 8.61974 309.168 8.14507 309.889 7.69606L309.398 6.99048C308.836 7.33685 308.153 7.74738 307.457 7.74738C306.486 7.74738 305.835 6.85577 305.835 5.34839C305.835 3.841 306.486 2.9494 307.457 2.9494C308.153 2.9494 308.842 3.35992 309.398 3.69988L309.889 2.98788ZM308.951 0.531166H308.274L307.533 1.27524L306.793 0.531166H306.116L307.029 1.73708H308.031L308.951 0.531166ZM314.965 8.52352H315.961V2.16043H314.984V7.07386L311.92 2.16043H310.924V8.52352H311.888V3.61008L314.965 8.52352ZM318.215 2.16684H317.251V8.52993H318.215V2.16684ZM261.883 13.8988C261.162 13.4434 260.319 12.9687 259.361 12.9687C257.976 12.9687 256.827 13.9694 256.827 16.2465C256.827 18.53 257.976 19.5242 259.361 19.5242C260.319 19.5242 261.162 19.0496 261.883 18.6006L261.392 17.8886C260.83 18.2349 260.147 18.6455 259.451 18.6455C258.487 18.6455 257.829 17.7539 257.829 16.2465C257.829 14.7391 258.48 13.8475 259.451 13.8475C260.147 13.8475 260.836 14.258 261.392 14.6044L261.883 13.8988ZM267.093 19.4344V18.6006H263.856V16.6634H266.48V15.8488H263.856V13.9116H267.042V13.0778H262.892V19.4408H267.093V19.4344ZM272.156 19.4344H273.152V13.0713H272.175V17.9848L269.111 13.0713H268.115V19.4344H269.079V14.5146L272.156 19.4344ZM278.892 13.9116V13.0778H274.027V13.9116H275.981V19.4344H276.951V13.9116H278.892ZM284.14 19.4344V18.6006H280.903V16.6634H283.527V15.8488H280.903V13.9116H284.089V13.0778H279.939V19.4408H284.14V19.4344ZM289.126 19.4344H290.193L288.501 16.7724C289.535 16.6121 290.18 16.054 290.18 14.9443C290.18 13.5909 289.222 13.0713 287.747 13.0713H285.181V19.4344H286.151V16.8174H287.524L289.126 19.4344ZM289.19 14.9443C289.19 15.7526 288.577 16.0284 287.709 16.0284H286.151V13.8667H287.741C288.571 13.8603 289.19 14.1361 289.19 14.9443ZM293.053 18.6711V19.4344H297.963V18.6006H294.285L297.918 13.8411V13.0778H293.251V13.9116H296.679L293.053 18.6711ZM303.402 19.4344H304.462L302.03 13.0713H300.97L298.55 19.4344H299.597L300.102 17.9784H302.898L303.402 19.4344ZM301.493 13.9437L302.624 17.1894H300.37L301.493 13.9437ZM262.228 27.1638C262.228 24.8931 261.085 23.9822 259.17 23.9822H257.12V30.3453H259.17C261.085 30.3389 262.228 29.4345 262.228 27.1638ZM261.232 27.1638C261.232 28.8444 260.543 29.5051 259.1 29.5051H258.084V24.8161H259.1C260.549 24.8161 261.232 25.4832 261.232 27.1638ZM267.617 30.3389V29.5051H264.38V27.5679H267.004V26.7469H264.38V24.8097H267.566V23.9758H263.416V30.3389H267.617ZM271.428 26.734C270.458 26.3877 269.628 26.2594 269.628 25.5602C269.628 24.9637 270.177 24.7071 270.764 24.7071C271.313 24.7071 272.124 24.9444 272.661 25.2138L273.107 24.4954C272.495 24.1747 271.55 23.8796 270.72 23.8796C269.487 23.8796 268.613 24.5403 268.613 25.6115C268.613 26.7276 269.564 27.1317 270.375 27.4011C271.46 27.786 272.329 27.9913 272.329 28.7097C272.329 29.3254 271.741 29.6077 271.115 29.6077C270.407 29.6077 269.468 29.2421 268.919 28.9149L268.479 29.6333C269.072 30.0054 270.126 30.4351 271.135 30.4351C272.354 30.4351 273.344 29.7873 273.344 28.6455C273.344 27.4524 272.265 27.0163 271.428 26.734ZM275.514 23.9822H274.55V30.3453H275.514V23.9822ZM281.146 30.3389H282.078V26.811H279.479V27.6H281.146V28.7353C280.82 29.0368 280.15 29.6013 279.435 29.6013C278.419 29.6013 277.8 28.6455 277.8 27.1574C277.8 25.65 278.464 24.7584 279.435 24.7584C280.175 24.7584 280.916 25.2202 281.49 25.5666L281.976 24.8482C281.241 24.3671 280.367 23.8732 279.345 23.8732C277.953 23.8732 276.791 24.8738 276.791 27.151C276.791 29.4345 277.96 30.4287 279.262 30.4287C280.022 30.4287 280.635 30.0567 281.146 29.6205V30.3389ZM287.486 30.3389H288.482V23.9758H287.505V28.8893L284.44 23.9758H283.444V30.3389H284.408V25.4255L287.486 30.3389ZM262.209 41.2498H263.179V34.8867H262.164L260.147 39.1203L258.123 34.8867H257.12V41.2498H258.084V36.4775L259.859 40.185H260.44L262.215 36.4711V41.2498H262.209ZM268.926 41.2498H269.985L267.553 34.8867H266.493L264.067 41.2498H265.114L265.618 39.7938H268.415L268.926 41.2498ZM267.017 35.7591L268.147 39.0048H265.893L267.017 35.7591ZM274.831 41.2498H275.827V34.8867H274.85V39.8002L271.786 34.8867H270.79V41.2498H271.76V36.3364L274.831 41.2498ZM281.65 41.2498H282.71L280.277 34.8867H279.218L276.791 41.2498H277.838L278.343 39.7938H281.139L281.65 41.2498ZM279.741 35.7591L280.871 39.0048H278.617L279.741 35.7591ZM287.518 41.2498H288.45V37.7219H285.851V38.5109H287.518V39.6462C287.192 39.9477 286.522 40.5122 285.806 40.5122C284.791 40.5122 284.172 39.5564 284.172 38.0683C284.172 36.5609 284.83 35.6693 285.806 35.6693C286.547 35.6693 287.288 36.1311 287.856 36.4775L288.341 35.7591C287.607 35.278 286.732 34.7841 285.711 34.7841C284.319 34.7841 283.163 35.7848 283.163 38.0619C283.163 40.3454 284.332 41.3396 285.634 41.3396C286.394 41.3396 287.007 40.9676 287.518 40.5314V41.2498ZM293.934 41.2498V40.416H290.697V38.4788H293.321V37.6642H290.697V35.727H293.883V34.8932H289.733V41.2563H293.934V41.2498ZM300.102 41.2498H301.072V34.8867H300.057L298.039 39.1203L296.015 34.8867H295.013V41.2498H295.977V36.4775L297.752 40.185H298.333L300.108 36.4711V41.2498H300.102ZM306.512 41.2498V40.416H303.275V38.4788H305.899V37.6642H303.275V35.727H306.461V34.8932H302.311V41.2563H306.512V41.2498ZM311.683 41.2498H312.679V34.8867H311.702V39.8002L308.638 34.8867H307.642V41.2498H308.606V36.3364L311.683 41.2498ZM318.413 35.727V34.8932H313.548V35.727H315.501V41.2498H316.472V35.727H318.413Z" fill="black"/>
</svg>
