<svg width="17" height="18" viewBox="0 0 17 18" fill="none" xmlns="http://www.w3.org/2000/svg">
<path d="M9.32812 1C9.33854 1 9.34375 1 9.34375 1C9.70833 0.96875 10.0677 1.08333 10.4219 1.34375C10.776 1.60417 10.9531 1.97917 10.9531 2.46875C10.9531 2.51042 10.9479 2.55729 10.9375 2.60938C10.9375 2.66146 10.9323 2.71354 10.9219 2.76562C10.8698 3.03646 10.7708 3.25521 10.625 3.42188C10.4896 3.58854 10.3385 3.74479 10.1719 3.89062C10.0677 3.98438 9.95833 4.07812 9.84375 4.17188C9.72917 4.25521 9.61979 4.33333 9.51562 4.40625C9.44271 4.45833 9.36979 4.51042 9.29688 4.5625C9.23438 4.61458 9.17708 4.66146 9.125 4.70312C8.94792 4.84896 8.79167 5.00521 8.65625 5.17188C8.52083 5.33854 8.39583 5.52604 8.28125 5.73438C8.19792 5.89062 8.10938 6.07292 8.01562 6.28125C7.93229 6.48958 7.89062 6.6875 7.89062 6.875C7.89062 7.01042 7.92188 7.13021 7.98438 7.23438C8.04688 7.33854 8.16667 7.41146 8.34375 7.45312C8.61458 7.51562 8.91146 7.47917 9.23438 7.34375C9.55729 7.19792 9.83333 7.05208 10.0625 6.90625C10.3542 6.72917 10.599 6.55729 10.7969 6.39062C11.0052 6.21354 11.1927 6.00521 11.3594 5.76562C11.4323 5.66146 11.5 5.55729 11.5625 5.45312C11.625 5.33854 11.6875 5.22917 11.75 5.125C11.8333 4.97917 11.9167 4.83333 12 4.6875C12.0938 4.54167 12.1979 4.40625 12.3125 4.28125C12.7812 3.79167 13.3229 3.66146 13.9375 3.89062C14.5521 4.10938 14.8646 4.55729 14.875 5.23438C14.875 5.24479 14.875 5.26042 14.875 5.28125C14.875 5.29167 14.875 5.30208 14.875 5.3125V5.32812C14.8542 5.71354 14.724 6.02083 14.4844 6.25C14.2552 6.46875 14.0104 6.63021 13.75 6.73438C13.5938 6.78646 13.4427 6.83333 13.2969 6.875C13.151 6.90625 13 6.93229 12.8438 6.95312C12.8125 6.96354 12.7812 6.97396 12.75 6.98438C12.7188 6.98438 12.6823 6.98438 12.6406 6.98438C12.526 7.00521 12.4062 7.02604 12.2812 7.04688C12.1562 7.06771 12.0365 7.09375 11.9219 7.125C11.6198 7.21875 11.3385 7.35938 11.0781 7.54688C10.8177 7.72396 10.5885 7.91667 10.3906 8.125C10.2969 8.22917 10.1979 8.33854 10.0938 8.45312C10 8.56771 9.90625 8.69271 9.8125 8.82812C9.73958 8.93229 9.68229 9.04688 9.64062 9.17188C9.59896 9.28646 9.57812 9.40104 9.57812 9.51562C9.57812 9.60938 9.59896 9.70312 9.64062 9.79688C9.68229 9.88021 9.75521 9.94792 9.85938 10C10.099 10.125 10.3802 10.1562 10.7031 10.0938C11.026 10.0208 11.3021 9.9375 11.5312 9.84375C11.75 9.76042 11.9583 9.65625 12.1562 9.53125C12.3542 9.39583 12.526 9.26042 12.6719 9.125C12.7031 9.09375 12.7292 9.06771 12.75 9.04688C12.7812 9.01562 12.8125 8.98438 12.8438 8.95312C13.1146 8.69271 13.4375 8.43229 13.8125 8.17188C14.1979 7.91146 14.6302 7.875 15.1094 8.0625C15.3073 8.13542 15.4844 8.26042 15.6406 8.4375C15.7969 8.61458 15.901 8.80729 15.9531 9.01562C15.974 9.09896 15.9896 9.17708 16 9.25C16.0104 9.32292 16.0104 9.39583 16 9.46875C16 9.48958 16 9.51042 16 9.53125C16 9.54167 16 9.55729 16 9.57812C15.9792 9.73438 15.9375 9.88542 15.875 10.0312C15.8125 10.1667 15.7344 10.2865 15.6406 10.3906C15.4948 10.5573 15.3229 10.6823 15.125 10.7656C14.9271 10.849 14.6927 10.901 14.4219 10.9219C14.2344 10.9219 14.0573 10.9167 13.8906 10.9062C13.724 10.8854 13.5625 10.8646 13.4062 10.8438C13.3333 10.8333 13.2604 10.8281 13.1875 10.8281C13.125 10.8177 13.0625 10.8073 13 10.7969C12.4792 10.7552 12.0052 10.8229 11.5781 11C11.151 11.1771 10.7552 11.3802 10.3906 11.6094C10.2135 11.724 10.0365 11.8438 9.85938 11.9688C9.69271 12.0938 9.53125 12.2344 9.375 12.3906C9.25 12.5156 9.11458 12.6719 8.96875 12.8594C8.83333 13.0469 8.76562 13.2448 8.76562 13.4531C8.76562 13.4635 8.76562 13.474 8.76562 13.4844C8.76562 13.4844 8.76562 13.4948 8.76562 13.5156C8.78646 13.6302 8.82812 13.7292 8.89062 13.8125C8.95312 13.8854 9.02604 13.9531 9.10938 14.0156L9.14062 14.0469C9.21354 14.1094 9.28125 14.1823 9.34375 14.2656C9.41667 14.3385 9.45833 14.4271 9.46875 14.5312C9.46875 14.5417 9.46875 14.5521 9.46875 14.5625C9.46875 14.5729 9.46875 14.5833 9.46875 14.5938C9.46875 14.5938 9.46875 14.599 9.46875 14.6094C9.45833 14.7552 9.39062 14.8802 9.26562 14.9844C9.14062 15.0885 9.02604 15.1771 8.92188 15.25C8.86979 15.2812 8.81771 15.3125 8.76562 15.3438C8.72396 15.375 8.68229 15.4062 8.64062 15.4375C8.04688 15.8229 7.40104 16.1823 6.70312 16.5156C6.01562 16.8594 5.22396 16.9688 4.32812 16.8438C3.82812 16.7708 3.35417 16.6302 2.90625 16.4219C2.46875 16.2135 2.07292 15.9531 1.71875 15.6406C1.36458 15.3281 1.0625 14.9688 0.8125 14.5625C0.552083 14.1562 0.354167 13.7188 0.21875 13.25C0.145833 13.0208 0.0885417 12.7812 0.046875 12.5312C0.015625 12.2708 0 12 0 11.7188C0 11.6354 0 11.5521 0 11.4688C0.0104167 11.3854 0.015625 11.3021 0.015625 11.2188C0.078125 10.5833 0.21875 9.96354 0.4375 9.35938C0.666667 8.75521 0.927083 8.15104 1.21875 7.54688C1.22917 7.52604 1.23958 7.51042 1.25 7.5C1.26042 7.47917 1.27083 7.45833 1.28125 7.4375C1.42708 7.125 1.56771 6.79688 1.70312 6.45312C1.84896 6.10938 1.92188 5.76042 1.92188 5.40625C1.92188 5.29167 1.91146 5.17708 1.89062 5.0625C1.86979 4.9375 1.84375 4.81771 1.8125 4.70312C1.79167 4.64062 1.76562 4.58333 1.73438 4.53125C1.71354 4.46875 1.69271 4.40625 1.67188 4.34375C1.63021 4.25 1.58854 4.15625 1.54688 4.0625C1.51562 3.96875 1.48958 3.86979 1.46875 3.76562C1.4375 3.67188 1.41667 3.58333 1.40625 3.5C1.39583 3.40625 1.39062 3.31771 1.39062 3.23438C1.39062 2.95312 1.44271 2.69792 1.54688 2.46875C1.66146 2.23958 1.80729 2.04688 1.98438 1.89062C2.44271 1.48438 2.91667 1.39583 3.40625 1.625C3.90625 1.85417 4.22396 2.19792 4.35938 2.65625C4.38021 2.71875 4.39583 2.78646 4.40625 2.85938C4.41667 2.93229 4.42188 3.00521 4.42188 3.07812C4.42188 3.20312 4.41146 3.32812 4.39062 3.45312C4.36979 3.56771 4.33854 3.67188 4.29688 3.76562C4.24479 3.93229 4.17188 4.08854 4.07812 4.23438C3.98438 4.36979 3.89062 4.51042 3.79688 4.65625C3.71354 4.76042 3.63021 4.875 3.54688 5C3.47396 5.11458 3.40104 5.24479 3.32812 5.39062C3.25521 5.52604 3.19271 5.67188 3.14062 5.82812C3.08854 5.98438 3.05208 6.13542 3.03125 6.28125C3.02083 6.34375 3.01042 6.40625 3 6.46875C3 6.53125 3 6.59375 3 6.65625C3 6.9375 3.0625 7.19792 3.1875 7.4375C3.32292 7.66667 3.56771 7.77604 3.92188 7.76562C4.10938 7.75521 4.29688 7.70833 4.48438 7.625C4.68229 7.54167 4.85938 7.45312 5.01562 7.35938C5.49479 7.07812 5.9375 6.75521 6.34375 6.39062C6.75 6.01562 7.09375 5.58333 7.375 5.09375C7.47917 4.9375 7.56771 4.76562 7.64062 4.57812C7.72396 4.39062 7.78646 4.20312 7.82812 4.01562C7.84896 3.88021 7.86458 3.74479 7.875 3.60938C7.89583 3.47396 7.91146 3.33333 7.92188 3.1875C7.92188 3.11458 7.92188 3.04167 7.92188 2.96875C7.93229 2.89583 7.94271 2.82292 7.95312 2.75C7.99479 2.27083 8.13021 1.88021 8.35938 1.57812C8.58854 1.26562 8.91146 1.08333 9.32812 1.03125V1ZM11.2188 12.9844C11.0208 13.151 10.8021 13.4062 10.5625 13.75C10.3229 14.0938 10.3333 14.4115 10.5938 14.7031C10.75 14.8802 10.9948 15.0312 11.3281 15.1562C11.6719 15.2812 11.9792 15.3542 12.25 15.375C12.4479 15.3958 12.6354 15.3906 12.8125 15.3594C12.9896 15.3177 13.151 15.2552 13.2969 15.1719C13.5365 15.0469 13.724 14.875 13.8594 14.6562C13.9948 14.4375 14.0625 14.1979 14.0625 13.9375C14.0625 13.7396 14.026 13.5573 13.9531 13.3906C13.8906 13.2135 13.8177 13.0729 13.7344 12.9688C13.599 12.8021 13.4062 12.6667 13.1562 12.5625C12.9167 12.4479 12.6719 12.401 12.4219 12.4219C12.2448 12.4323 12.0729 12.474 11.9062 12.5469C11.75 12.6198 11.6042 12.7031 11.4688 12.7969C11.4583 12.7969 11.4479 12.8021 11.4375 12.8125C11.4271 12.8125 11.4167 12.8177 11.4062 12.8281C11.375 12.849 11.3438 12.875 11.3125 12.9062C11.2812 12.9271 11.25 12.9531 11.2188 12.9844Z" fill="#4BAC87"/>
</svg>
