<svg width="28" height="29" viewBox="0 0 28 29" fill="none" xmlns="http://www.w3.org/2000/svg">
<path d="M9.92578 0.75C11.293 0.75 12.5781 1.01432 13.7812 1.54297C14.9844 2.05339 16.0326 2.76432 16.9258 3.67578C17.819 4.56901 18.5299 5.61719 19.0586 6.82031C19.569 8.02344 19.8242 9.30859 19.8242 10.6758C19.8242 12.043 19.569 13.3281 19.0586 14.5312C18.5299 15.7344 17.819 16.7826 16.9258 17.6758C16.0326 18.569 14.9844 19.2799 13.7812 19.8086C12.5781 20.319 11.293 20.5742 9.92578 20.5742C8.55859 20.5742 7.27344 20.319 6.07031 19.8086C4.86719 19.2799 3.8099 18.569 2.89844 17.6758C2.00521 16.7826 1.30339 15.7344 0.792969 14.5312C0.264323 13.3281 0 12.043 0 10.6758C0 9.30859 0.264323 8.02344 0.792969 6.82031C1.30339 5.61719 2.00521 4.56901 2.89844 3.67578C3.8099 2.76432 4.86719 2.05339 6.07031 1.54297C7.27344 1.01432 8.55859 0.75 9.92578 0.75ZM9.92578 18.25C10.9648 18.25 11.9401 18.0495 12.8516 17.6484C13.7812 17.2474 14.5833 16.7096 15.2578 16.0352C15.9505 15.3424 16.4974 14.5312 16.8984 13.6016C17.2995 12.6901 17.5 11.7148 17.5 10.6758C17.5 9.61849 17.2995 8.63411 16.8984 7.72266C16.4974 6.79297 15.9505 5.99089 15.2578 5.31641C14.5833 4.6237 13.7812 4.07682 12.8516 3.67578C11.9401 3.27474 10.9648 3.07422 9.92578 3.07422C8.86849 3.07422 7.88411 3.27474 6.97266 3.67578C6.04297 4.07682 5.23177 4.6237 4.53906 5.31641C3.86458 5.99089 3.32682 6.79297 2.92578 7.72266C2.52474 8.63411 2.32422 9.61849 2.32422 10.6758C2.32422 11.7148 2.52474 12.6901 2.92578 13.6016C3.32682 14.5312 3.86458 15.3424 4.53906 16.0352C5.23177 16.7096 6.04297 17.2474 6.97266 17.6484C7.88411 18.0495 8.86849 18.25 9.92578 18.25ZM17.8555 20.2461L26.0039 28.4219L27.6719 26.7539L19.4961 18.6055L17.8555 20.2461Z" fill="white"/>
</svg>
