<svg width="28" height="28" viewBox="0 0 28 28" fill="none" xmlns="http://www.w3.org/2000/svg">
<path d="M17.6484 16.3047L17.6719 16.3281H13.6875V26.5234H8.32031V16.3281H5.27344V11.8047H8.32031V9.85938C8.32031 8.59375 8.46094 7.5 8.74219 6.57812C9.03906 5.65625 9.47656 4.89844 10.0547 4.30469C10.6484 3.69531 11.3984 3.24219 12.3047 2.94531C13.2109 2.64844 14.2812 2.5 15.5156 2.5C15.9844 2.5 16.5547 2.53906 17.2266 2.61719C17.8984 2.69531 18.3984 2.77344 18.7266 2.85156V6.92969C18.5547 6.91406 18.3203 6.90625 18.0234 6.90625C17.7422 6.89063 17.4062 6.88281 17.0156 6.88281C15.8125 6.88281 14.9531 7.14062 14.4375 7.65625C13.9219 8.15625 13.6641 9 13.6641 10.1875V11.7812H18.4688L17.6484 16.3047Z" fill="white"/>
</svg>
