<svg width="28" height="28" viewBox="0 0 28 28" fill="none" xmlns="http://www.w3.org/2000/svg">
<path d="M24 26.5H19.0547V18.1094C19.0547 16.9531 18.8281 16.0703 18.375 15.4609C17.9375 14.8359 17.2656 14.5234 16.3594 14.5234C15.375 14.5234 14.625 14.8438 14.1094 15.4844C13.5938 16.1094 13.3359 16.9844 13.3359 18.1094V26.5H8.57812V10.4922H13.3359V12.6484C13.3359 12.6484 13.7109 12.2109 14.4609 11.3359C15.2266 10.4609 16.4609 10.0234 18.1641 10.0234C19.0078 10.0234 19.7891 10.1562 20.5078 10.4219C21.2109 10.6719 21.8203 11.0625 22.3359 11.5938C22.8516 12.125 23.2578 12.7891 23.5547 13.5859C23.8359 14.3828 23.9766 15.3125 23.9766 16.375V26.5234L24 26.5ZM2.92969 8.40625C2.13281 8.40625 1.44531 8.11719 0.867188 7.53906C0.289062 6.96094 0 6.25781 0 5.42969C0 4.61719 0.289062 3.92969 0.867188 3.36719C1.44531 2.78906 2.13281 2.5 2.92969 2.5C3.74219 2.5 4.42969 2.78906 4.99219 3.36719C5.57031 3.94531 5.85938 4.64063 5.85938 5.45312C5.85938 6.28125 5.57031 6.98438 4.99219 7.5625C4.42969 8.14062 3.74219 8.42969 2.92969 8.42969V8.40625ZM0.46875 26.5H5.4375V10.4922H0.46875V26.5Z" fill="white"/>
</svg>
