<svg width="29" height="28" viewBox="0 0 29 28" fill="none" xmlns="http://www.w3.org/2000/svg">
<path d="M24.9766 8.875H24.9531C24.9375 9.45312 24.8203 10.0859 24.6016 10.7734C24.3984 11.4609 24.0938 12.2109 23.6875 13.0234C23.2812 13.8203 22.7812 14.6875 22.1875 15.625C21.5781 16.5469 20.8828 17.5391 20.1016 18.6016C19.2891 19.6641 18.5078 20.5859 17.7578 21.3672C17.0078 22.1641 16.2891 22.8281 15.6016 23.3594C14.9141 23.875 14.25 24.2656 13.6094 24.5312C12.9844 24.7969 12.3984 24.9297 11.8516 24.9297C11.1484 24.9297 10.5 24.6016 9.90625 23.9453C9.32812 23.2891 8.78906 22.3281 8.28906 21.0625C8.17969 20.6875 8.04688 20.1953 7.89062 19.5859C7.73438 18.9766 7.53906 18.2891 7.30469 17.5234C7.07031 16.7578 6.875 16.0781 6.71875 15.4844C6.5625 14.875 6.42188 14.375 6.29688 13.9844C5.95312 12.7188 5.58594 11.7578 5.19531 11.1016C4.80469 10.4453 4.39844 10.1172 3.97656 10.1172C3.89844 10.1172 3.70312 10.2188 3.39062 10.4219C3.07812 10.6094 2.65625 10.8984 2.125 11.2891L0.953125 9.8125C1.15625 9.67188 1.40625 9.46875 1.70312 9.20312C2 8.9375 2.34375 8.63281 2.73438 8.28906C3.125 7.92969 3.46875 7.625 3.76562 7.375C4.07812 7.10937 4.32812 6.89844 4.51562 6.74219C5.28125 6.08594 5.95312 5.57031 6.53125 5.19531C7.125 4.82031 7.63281 4.61719 8.05469 4.58594C9.02344 4.46094 9.78906 4.72656 10.3516 5.38281C10.9141 6.02344 11.3125 7.01562 11.5469 8.35938C11.7656 9.79688 11.9609 10.9766 12.1328 11.8984C12.3203 12.8047 12.4531 13.4531 12.5312 13.8438C12.8125 15.0312 13.1016 15.9297 13.3984 16.5391C13.6953 17.1484 14 17.4531 14.3125 17.4531C14.5469 17.4531 14.8516 17.25 15.2266 16.8438C15.6172 16.4219 16.0625 15.8281 16.5625 15.0625C17.0625 14.25 17.4453 13.5469 17.7109 12.9531C17.9766 12.3594 18.1328 11.8516 18.1797 11.4297C18.2578 10.7422 18.1641 10.2266 17.8984 9.88281C17.6328 9.53906 17.1875 9.36719 16.5625 9.36719C16.2969 9.36719 16.0078 9.39062 15.6953 9.4375C15.3984 9.48438 15.0938 9.58594 14.7812 9.74219C15.0781 8.77344 15.4375 7.92969 15.8594 7.21094C16.2812 6.50781 16.7734 5.92188 17.3359 5.45312C17.8984 4.98438 18.5234 4.63281 19.2109 4.39844C19.9141 4.17969 20.6797 4.07813 21.5078 4.09375C22.7422 4.14062 23.6484 4.57031 24.2266 5.38281C24.8047 6.17969 25.0547 7.34375 24.9766 8.875Z" fill="white"/>
</svg>
